Coordinates
version=1
nRows=12
nColumns=24
inDegrees=yes

Units are S.I. units (second, meters, Newtons, ...)
Angles are in degrees.

endheader
time	pelvis_tilt	pelvis_list	pelvis_rotation	pelvis_tx	pelvis_ty	pelvis_tz	hip_flexion_r	hip_adduction_r	hip_rotation_r	knee_angle_r	ankle_angle_r	subtalar_angle_r	mtp_angle_r	hip_flexion_l	hip_adduction_l	hip_rotation_l	knee_angle_l	ankle_angle_l	subtalar_angle_l	mtp_angle_l	lumbar_extension	lumbar_bending	lumbar_rotation
      1.02900000	     -1.25366560	     -1.07431996	     -3.88572497	     -0.19226234	      0.97091596	      0.32892674	    -11.62474429	      3.86070667	     -5.90951768	    -10.80744374	     17.18138267	      2.55688773	      4.26042855	     24.56038552	     -0.41163100	     -4.74669721	     -0.33880527	      0.52603122	     -2.66275127	     -0.74609048	     -1.96951034	      3.93285829	      7.24988274
      1.03316667	     -1.28384361	     -1.00025225	     -3.95560688	     -0.18642801	      0.97028082	      0.32860088	    -11.64574800	      3.68022126	     -5.93729936	    -11.41365627	     17.32138493	      2.70840494	      4.20219156	     24.51987480	     -0.28674157	     -4.81710810	     -0.27417810	      0.27016132	     -2.95598640	     -0.68894467	     -1.91936144	      3.86962076	      7.34097610
      1.03733333	     -1.29614346	     -0.91264982	     -4.01745565	     -0.18054227	      0.96972332	      0.32829248	    -11.69089657	      3.49152048	     -5.92748711	    -12.00584365	     17.36284040	      2.75357646	      4.14960276	     24.44277417	     -0.15333186	     -4.84209217	     -0.26320336	     -0.03769078	     -3.31780703	     -0.62855825	     -1.87280995	      3.75788789	      7.35685178
      1.04150000	     -1.32578484	     -0.79505708	     -4.06747819	     -0.17462900	      0.96923491	      0.32798970	    -11.71465504	      3.28100748	     -5.86647258	    -12.59265126	     17.32432529	      2.68895029	      4.12981736	     24.43311633	      0.01060089	     -4.99249398	     -0.41836422	     -0.31467841	     -3.50950556	     -0.60202030	     -1.80478411	      3.60785778	      7.34578414
      1.04566667	     -1.37400654	     -0.69888831	     -4.10520045	     -0.16874995	      0.96874431	      0.32764630	    -11.67141196	      3.08784958	     -5.85039879	    -13.27728051	     17.36663987	      2.68693399	      4.10584849	     24.45512130	      0.15843782	     -5.02699772	     -0.64631909	     -0.68338206	     -3.91691661	     -0.53017824	     -1.71707100	      3.49650453	      7.37451235
      1.04983333	     -1.39713957	     -0.57105966	     -4.13759427	     -0.16279783	      0.96835154	      0.32731086	    -11.66036122	      2.86560929	     -5.79503480	    -13.94263071	     17.25676766	      2.58477994	      4.09793157	     24.46516682	      0.33438848	     -5.11958938	     -0.96266610	     -1.01744164	     -4.16184095	     -0.49528200	     -1.64851350	      3.32605020	      7.35704092
      1.05400000	     -1.46559173	     -0.47195343	     -4.15195627	     -0.15689144	      0.96792806	      0.32691153	    -11.55808576	      2.67461095	     -5.76017561	    -14.69257142	     17.23457191	      2.52158666	      4.10565405	     24.53662069	      0.49141743	     -5.06040236	     -1.34261271	     -1.47821852	     -4.69799017	     -0.39119062	     -1.53820158	      3.22704710	      7.36801964
      1.05816667	     -1.53259242	     -0.35284336	     -4.15940657	     -0.15093030	      0.96756836	      0.32653153	    -11.44878989	      2.46831784	     -5.70379353	    -15.45254473	     17.10496823	      2.39519591	      4.12943306	     24.61777635	      0.66358985	     -5.03621774	     -1.78813759	     -1.93426040	     -5.12587114	     -0.28159690	     -1.41640998	      3.07983557	      7.35164707
      1.06233333	     -1.58618217	     -0.23185664	     -4.15187735	     -0.14494790	      0.96726119	      0.32611266	    -11.33197844	      2.25943613	     -5.65634923	    -16.25408599	     16.94376250	      2.24158389	      4.17579627	     24.69397341	      0.84461060	     -4.97393958	     -2.28712240	     -2.41058991	     -5.58396660	     -0.15505836	     -1.30653164	      2.93113083	      7.32914271
      1.06650000	     -1.64635060	     -0.10628800	     -4.13311113	     -0.13895130	      0.96699563	      0.32568126	    -11.18628301	      2.04969817	     -5.60389826	    -17.09075884	     16.73397457	      2.05861079	      4.24793124	     24.78664936	      1.03213312	     -4.88462621	     -2.83370535	     -2.90851918	     -6.05078862	     -0.01475589	     -1.18880220	      2.77631712	      7.29557310
      1.07066667	     -1.64366967	      0.03501639	     -4.09592333	     -0.13289519	      0.96686816	      0.32519980	    -11.09793005	      1.81807864	     -5.57670150	    -17.94015951	     16.41736789	      1.84015584	      4.79278262	     24.77588540	      1.25568325	     -4.68633315	     -3.33174665	     -3.50286656	     -6.67488815	      0.81123594	     -1.15014017	      2.60806663	      7.25344735
      1.07483333	     -1.76151549	      0.15351647	     -4.05757260	     -0.12688518	      0.96660240	      0.32473501	    -10.83180065	      1.62466520	     -5.51017198	    -18.87925449	     16.15469612	      1.62861980	      4.88677702	     24.98657644	      1.42972113	     -4.64050408	     -4.04037098	     -3.94249760	     -6.98997296	      0.91625453	     -0.95619201	      2.46463273	      7.20272923
